G04 #@! TF.GenerationSoftware,KiCad,Pcbnew,(5.1.5)-3*
G04 #@! TF.CreationDate,2020-05-11T13:25:36+02:00*
G04 #@! TF.ProjectId,Weather_Station_board,57656174-6865-4725-9f53-746174696f6e,rev?*
G04 #@! TF.SameCoordinates,Original*
G04 #@! TF.FileFunction,Legend,Top*
G04 #@! TF.FilePolarity,Positive*
%FSLAX46Y46*%
G04 Gerber Fmt 4.6, Leading zero omitted, Abs format (unit mm)*
G04 Created by KiCad (PCBNEW (5.1.5)-3) date 2020-05-11 13:25:36*
%MOMM*%
%LPD*%
G04 APERTURE LIST*
%ADD10C,0.120000*%
%ADD11C,0.254000*%
%ADD12C,0.152400*%
%ADD13C,0.200000*%
%ADD14C,0.150000*%
G04 APERTURE END LIST*
D10*
X102870000Y-59690000D02*
X102870000Y-57150000D01*
X102870000Y-57150000D02*
X100200000Y-57150000D01*
X100200000Y-59690000D02*
X100200000Y-97920000D01*
X100200000Y-54480000D02*
X100200000Y-57150000D01*
X115570000Y-57150000D02*
X118240000Y-57150000D01*
X115570000Y-57150000D02*
X115570000Y-95250000D01*
X115570000Y-95250000D02*
X118240000Y-95250000D01*
X102870000Y-59690000D02*
X100200000Y-59690000D01*
X102870000Y-59690000D02*
X102870000Y-95250000D01*
X102870000Y-95250000D02*
X100200000Y-95250000D01*
X100200000Y-97920000D02*
X118240000Y-97920000D01*
X118240000Y-97920000D02*
X118240000Y-54480000D01*
X118240000Y-54480000D02*
X100200000Y-54480000D01*
X93920000Y-90230000D02*
X96580000Y-90230000D01*
X93920000Y-85090000D02*
X93920000Y-90230000D01*
X96580000Y-85090000D02*
X96580000Y-90230000D01*
X93920000Y-85090000D02*
X96580000Y-85090000D01*
X93920000Y-83820000D02*
X93920000Y-82490000D01*
X93920000Y-82490000D02*
X95250000Y-82490000D01*
X93920000Y-59630000D02*
X95250000Y-59630000D01*
X93920000Y-60960000D02*
X93920000Y-59630000D01*
X93920000Y-62230000D02*
X96580000Y-62230000D01*
X96580000Y-62230000D02*
X96580000Y-67370000D01*
X93920000Y-62230000D02*
X93920000Y-67370000D01*
X93920000Y-67370000D02*
X96580000Y-67370000D01*
X113080000Y-48752500D02*
X112630000Y-48752500D01*
X113080000Y-46902500D02*
X113080000Y-48752500D01*
X105280000Y-44352500D02*
X105280000Y-44602500D01*
X113080000Y-44352500D02*
X113080000Y-44602500D01*
X105280000Y-46902500D02*
X105280000Y-48752500D01*
X105280000Y-48752500D02*
X105730000Y-48752500D01*
X110880000Y-49302500D02*
X110430000Y-49302500D01*
X110880000Y-49302500D02*
X110880000Y-48852500D01*
X96290000Y-71660000D02*
X96620000Y-71660000D01*
X96620000Y-71660000D02*
X96620000Y-78200000D01*
X96620000Y-78200000D02*
X96290000Y-78200000D01*
X94210000Y-71660000D02*
X93880000Y-71660000D01*
X93880000Y-71660000D02*
X93880000Y-78200000D01*
X93880000Y-78200000D02*
X94210000Y-78200000D01*
X93750000Y-44220000D02*
X93750000Y-47220000D01*
X101850000Y-47220000D02*
X101850000Y-44220000D01*
X93750000Y-44220000D02*
X101850000Y-44220000D01*
X101850000Y-47220000D02*
X93750000Y-47220000D01*
X96620000Y-94520000D02*
X96290000Y-94520000D01*
X96620000Y-101060000D02*
X96620000Y-94520000D01*
X96290000Y-101060000D02*
X96620000Y-101060000D01*
X93880000Y-94520000D02*
X94210000Y-94520000D01*
X93880000Y-101060000D02*
X93880000Y-94520000D01*
X94210000Y-101060000D02*
X93880000Y-101060000D01*
X97100000Y-56410000D02*
X97100000Y-52810000D01*
X97088478Y-56448478D02*
G75*
G02X92650000Y-54610000I-1838478J1838478D01*
G01*
X97088478Y-52771522D02*
G75*
G03X92650000Y-54610000I-1838478J-1838478D01*
G01*
D11*
X118872000Y-43688000D02*
X143510000Y-43688000D01*
X143510000Y-43688000D02*
X143510000Y-57912000D01*
X143510000Y-57912000D02*
X118872000Y-57912000D01*
X118872000Y-57912000D02*
X118872000Y-43688000D01*
D12*
X121920000Y-45720000D02*
X119380000Y-45720000D01*
X119380000Y-45720000D02*
X119380000Y-48260000D01*
X119380000Y-48260000D02*
X119380000Y-55880000D01*
X119380000Y-55880000D02*
X124460000Y-55880000D01*
X124460000Y-55880000D02*
X124460000Y-45720000D01*
X124460000Y-45720000D02*
X121920000Y-45720000D01*
D10*
X137450000Y-58390000D02*
X142700000Y-58390000D01*
X142700000Y-58390000D02*
X142700000Y-69140000D01*
X137450000Y-58390000D02*
X142700000Y-58390000D01*
X142700000Y-58390000D02*
X142700000Y-69140000D01*
X137450000Y-101630000D02*
X142700000Y-101630000D01*
X142700000Y-101630000D02*
X142700000Y-90880000D01*
X137450000Y-58390000D02*
X142700000Y-58390000D01*
X142700000Y-58390000D02*
X142700000Y-69140000D01*
X126710000Y-101630000D02*
X121460000Y-101630000D01*
X121460000Y-101630000D02*
X121460000Y-90880000D01*
X126710000Y-58390000D02*
X122580000Y-58390000D01*
X122580000Y-58390000D02*
X121460000Y-59510000D01*
X121460000Y-59510000D02*
X121460000Y-69140000D01*
D13*
X121680000Y-58510000D02*
G75*
G03X121680000Y-58510000I-100000J0D01*
G01*
D14*
X108505714Y-53506666D02*
X108981904Y-53506666D01*
X108410476Y-53792380D02*
X108743809Y-52792380D01*
X109077142Y-53792380D01*
X109934285Y-53792380D02*
X109362857Y-53792380D01*
X109648571Y-53792380D02*
X109648571Y-52792380D01*
X109553333Y-52935238D01*
X109458095Y-53030476D01*
X109362857Y-53078095D01*
X94916666Y-80942380D02*
X94916666Y-81656666D01*
X94869047Y-81799523D01*
X94773809Y-81894761D01*
X94630952Y-81942380D01*
X94535714Y-81942380D01*
X95916666Y-81942380D02*
X95345238Y-81942380D01*
X95630952Y-81942380D02*
X95630952Y-80942380D01*
X95535714Y-81085238D01*
X95440476Y-81180476D01*
X95345238Y-81228095D01*
X94916666Y-58082380D02*
X94916666Y-58796666D01*
X94869047Y-58939523D01*
X94773809Y-59034761D01*
X94630952Y-59082380D01*
X94535714Y-59082380D01*
X95345238Y-58177619D02*
X95392857Y-58130000D01*
X95488095Y-58082380D01*
X95726190Y-58082380D01*
X95821428Y-58130000D01*
X95869047Y-58177619D01*
X95916666Y-58272857D01*
X95916666Y-58368095D01*
X95869047Y-58510952D01*
X95297619Y-59082380D01*
X95916666Y-59082380D01*
X113966666Y-48982380D02*
X113966666Y-49696666D01*
X113919047Y-49839523D01*
X113823809Y-49934761D01*
X113680952Y-49982380D01*
X113585714Y-49982380D01*
X114347619Y-48982380D02*
X114966666Y-48982380D01*
X114633333Y-49363333D01*
X114776190Y-49363333D01*
X114871428Y-49410952D01*
X114919047Y-49458571D01*
X114966666Y-49553809D01*
X114966666Y-49791904D01*
X114919047Y-49887142D01*
X114871428Y-49934761D01*
X114776190Y-49982380D01*
X114490476Y-49982380D01*
X114395238Y-49934761D01*
X114347619Y-49887142D01*
X98072380Y-75096666D02*
X97596190Y-75430000D01*
X98072380Y-75668095D02*
X97072380Y-75668095D01*
X97072380Y-75287142D01*
X97120000Y-75191904D01*
X97167619Y-75144285D01*
X97262857Y-75096666D01*
X97405714Y-75096666D01*
X97500952Y-75144285D01*
X97548571Y-75191904D01*
X97596190Y-75287142D01*
X97596190Y-75668095D01*
X98072380Y-74144285D02*
X98072380Y-74715714D01*
X98072380Y-74430000D02*
X97072380Y-74430000D01*
X97215238Y-74525238D01*
X97310476Y-74620476D01*
X97358095Y-74715714D01*
X102703333Y-48712380D02*
X102370000Y-48236190D01*
X102131904Y-48712380D02*
X102131904Y-47712380D01*
X102512857Y-47712380D01*
X102608095Y-47760000D01*
X102655714Y-47807619D01*
X102703333Y-47902857D01*
X102703333Y-48045714D01*
X102655714Y-48140952D01*
X102608095Y-48188571D01*
X102512857Y-48236190D01*
X102131904Y-48236190D01*
X103084285Y-47807619D02*
X103131904Y-47760000D01*
X103227142Y-47712380D01*
X103465238Y-47712380D01*
X103560476Y-47760000D01*
X103608095Y-47807619D01*
X103655714Y-47902857D01*
X103655714Y-47998095D01*
X103608095Y-48140952D01*
X103036666Y-48712380D01*
X103655714Y-48712380D01*
X98242380Y-94146666D02*
X97766190Y-94480000D01*
X98242380Y-94718095D02*
X97242380Y-94718095D01*
X97242380Y-94337142D01*
X97290000Y-94241904D01*
X97337619Y-94194285D01*
X97432857Y-94146666D01*
X97575714Y-94146666D01*
X97670952Y-94194285D01*
X97718571Y-94241904D01*
X97766190Y-94337142D01*
X97766190Y-94718095D01*
X97242380Y-93813333D02*
X97242380Y-93194285D01*
X97623333Y-93527619D01*
X97623333Y-93384761D01*
X97670952Y-93289523D01*
X97718571Y-93241904D01*
X97813809Y-93194285D01*
X98051904Y-93194285D01*
X98147142Y-93241904D01*
X98194761Y-93289523D01*
X98242380Y-93384761D01*
X98242380Y-93670476D01*
X98194761Y-93765714D01*
X98147142Y-93813333D01*
X94488095Y-50252380D02*
X94488095Y-51061904D01*
X94535714Y-51157142D01*
X94583333Y-51204761D01*
X94678571Y-51252380D01*
X94869047Y-51252380D01*
X94964285Y-51204761D01*
X95011904Y-51157142D01*
X95059523Y-51061904D01*
X95059523Y-50252380D01*
X96059523Y-51252380D02*
X95488095Y-51252380D01*
X95773809Y-51252380D02*
X95773809Y-50252380D01*
X95678571Y-50395238D01*
X95583333Y-50490476D01*
X95488095Y-50538095D01*
X116078095Y-43902380D02*
X116078095Y-44711904D01*
X116125714Y-44807142D01*
X116173333Y-44854761D01*
X116268571Y-44902380D01*
X116459047Y-44902380D01*
X116554285Y-44854761D01*
X116601904Y-44807142D01*
X116649523Y-44711904D01*
X116649523Y-43902380D01*
X117078095Y-43997619D02*
X117125714Y-43950000D01*
X117220952Y-43902380D01*
X117459047Y-43902380D01*
X117554285Y-43950000D01*
X117601904Y-43997619D01*
X117649523Y-44092857D01*
X117649523Y-44188095D01*
X117601904Y-44330952D01*
X117030476Y-44902380D01*
X117649523Y-44902380D01*
X118618095Y-98512380D02*
X118618095Y-99321904D01*
X118665714Y-99417142D01*
X118713333Y-99464761D01*
X118808571Y-99512380D01*
X118999047Y-99512380D01*
X119094285Y-99464761D01*
X119141904Y-99417142D01*
X119189523Y-99321904D01*
X119189523Y-98512380D01*
X119570476Y-98512380D02*
X120189523Y-98512380D01*
X119856190Y-98893333D01*
X119999047Y-98893333D01*
X120094285Y-98940952D01*
X120141904Y-98988571D01*
X120189523Y-99083809D01*
X120189523Y-99321904D01*
X120141904Y-99417142D01*
X120094285Y-99464761D01*
X119999047Y-99512380D01*
X119713333Y-99512380D01*
X119618095Y-99464761D01*
X119570476Y-99417142D01*
M02*
