M48
; DRILL file {KiCad (5.1.5)-3} date 11/05/2020 13:22:11
; FORMAT={-:-/ absolute / inch / decimal}
; #@! TF.CreationDate,2020-05-11T13:22:11+02:00
; #@! TF.GenerationSoftware,Kicad,Pcbnew,(5.1.5)-3
FMAT,2
INCH
T1C0.0157
T2C0.0236
T3C0.0295
T4C0.0300
T5C0.0315
T6C0.0335
T7C0.0394
T8C0.0400
T9C0.0512
%
G90
G05
T1
X3.9Y-2.4
X3.9Y-2.5
X3.9Y-2.6
X3.9Y-3.0
X3.9Y-3.15
X3.9Y-3.15
X4.1Y-3.3
X4.25Y-2.05
X4.45Y-2.35
T3
X3.75Y-2.1
X3.75Y-2.15
X3.75Y-2.2
T4
X4.85Y-2.35
X4.85Y-3.95
X5.55Y-2.35
X5.55Y-3.95
T5
X3.75Y-3.7
X3.75Y-4.0
X4.0Y-2.3
X4.0Y-2.4
X4.0Y-2.5
X4.0Y-2.6
X4.0Y-2.7
X4.0Y-2.8
X4.0Y-2.9
X4.0Y-3.0
X4.0Y-3.1
X4.0Y-3.2
X4.0Y-3.3
X4.0Y-3.4
X4.0Y-3.5
X4.0Y-3.6
X4.0Y-3.7
X4.6Y-2.3
X4.6Y-2.4
X4.6Y-2.5
X4.6Y-2.6
X4.6Y-2.7
X4.6Y-2.8
X4.6Y-2.9
X4.6Y-3.0
X4.6Y-3.1
X4.6Y-3.2
X4.6Y-3.3
X4.6Y-3.4
X4.6Y-3.5
X4.6Y-3.6
X4.6Y-3.7
X3.75Y-2.8
X3.75Y-3.1
T6
X4.2Y-1.9076
X4.3969Y-1.9076
T7
X3.75Y-3.3
X3.75Y-3.4
X3.75Y-3.5
X3.75Y-2.4
X3.75Y-2.5
X3.75Y-2.6
T8
X4.75Y-1.85
X4.75Y-1.95
X4.75Y-2.05
X4.75Y-2.15
X4.85Y-1.85
X4.85Y-1.95
X4.85Y-2.05
X4.85Y-2.15
T9
X3.75Y-1.8
X3.95Y-1.8
T2
G00X4.1606Y-1.8151
M15
G01X4.1606Y-1.7875
M16
G05
G00X4.4362Y-1.7875
M15
G01X4.4362Y-1.8151
M16
G05
T0
M30
